HIERARCHY
ROOT pelvis
{
  OFFSET 0 100 0
  CHANNELS 6 Xposition Yposition Zposition Zrotation Xrotation Yrotation
  JOINT pelvis_right_femur
  {
    OFFSET -10.78128 -3.44521 -0.5502486
    CHANNELS 3 Zrotation Xrotation Yrotation
    JOINT right_femur_tibia
    {
      OFFSET -0.8047443 -44.0398 -0.1307829
      CHANNELS 3 Zrotation Xrotation Yrotation
      JOINT right_tibia_foot
      {
        OFFSET 3.006224 -47.83518 -5
        CHANNELS 3 Zrotation Xrotation Yrotation
        End Site
        {
          OFFSET 0 -5 15
        }
      }
    }
  }
  JOINT pelvis_left_femur
  {
    OFFSET 10.78128 -3.44521 -0.5502486
    CHANNELS 3 Zrotation Xrotation Yrotation
    JOINT left_femur_tibia
    {
      OFFSET 0.8047443 -44.0398 -0.1307829
      CHANNELS 3 Zrotation Xrotation Yrotation
      JOINT left_tibia_foot
      {
        OFFSET -4.370144 -48.10324 -4.275266
        CHANNELS 3 Zrotation Xrotation Yrotation
        End Site
        {
          OFFSET 0 -5 15
        }
      }
    }
  }
  JOINT pelvis_spine1
  {
    OFFSET 0 6.468898 -3.129235
    CHANNELS 3 Zrotation Xrotation Yrotation
    JOINT spine1
    {
      OFFSET 0 23.15396 4.99043
      CHANNELS 3 Zrotation Xrotation Yrotation
      JOINT spine2
      {
        OFFSET 0 20.79997 -5.064912
        CHANNELS 3 Zrotation Xrotation Yrotation
        JOINT neck
        {
          OFFSET 0 14.38658 9.616178
          CHANNELS 3 Zrotation Xrotation Yrotation
          End Site
          {
            OFFSET 0 20 0
          }
        }
      }
      JOINT right_manubrium
      {
        OFFSET -5.722621 16.35077 3.967754
        CHANNELS 3 Zrotation Xrotation Yrotation
        JOINT right_clavicle
        {
          OFFSET -13.16364 1.694482 -4.693211
          CHANNELS 3 Zrotation Xrotation Yrotation
          JOINT right_humerus
          {
            OFFSET -28.5034 -0.3100689 -2.792744
            CHANNELS 3 Zrotation Xrotation Yrotation
            JOINT right_radius
            {
              OFFSET -25.15693 0.02248979 -1.271978
              CHANNELS 3 Zrotation Xrotation Yrotation
              End Site
              {
                OFFSET -15 0 0
              }
            }
          }
        }
      }
      JOINT left_manubrium
      {
        OFFSET 5.722621 16.35077 3.967754
        CHANNELS 3 Zrotation Xrotation Yrotation
        JOINT left_clavicle
        {
          OFFSET 13.16364 1.694482 -4.693211
          CHANNELS 3 Zrotation Xrotation Yrotation
          JOINT left_humerus
          {
            OFFSET 29.39168 -1.063119 -2.237045
            CHANNELS 3 Zrotation Xrotation Yrotation
            JOINT left_radius
            {
              OFFSET 24.59957 -0.9528479 0.9047498
              CHANNELS 3 Zrotation Xrotation Yrotation
              End Site
              {
                OFFSET 15 -0 -0
              }
            }
          }
        }
      }
    }
  }
}
MOTION
Frames: 15
Frame Time: 0.0416666666667
0 103.5113 0 0.1482834 -2.292634 0.1116692 3.996558 -18.31187 7.378439 -0 38.90315 -0 -5.707389 -14.56925 -3.688171 -6.359964 10.18749 -20.82599 -0 6.440744 -0 7.465681 -16.81223 25.8981 -2.942393 -2.28637 3.276805 1.983786 8.973297 -6.939371 1.771243 23.07474 6.62573 2.835942 -22.30473 9.634961 5.133081 -18.31022 11.1923 85.32742 31.82322 -17.22797 -0 0 15.01102 -9.284703 8.072347 4.918599 6.693065 -19.43493 -1.269251 -92.56507 24.9618 18.72448 0 0 -12.98638 11.89261 18.49463 -0.4645849
0.1912001 102.7772 2.160745 0.08842194 -1.890116 0.2178627 4.196933 -19.38541 7.37058 -0 37.38569 -0 -5.634267 -14.55102 -3.555126 -6.352871 10.48389 -20.83197 -0 6.228632 -0 7.464797 -17.28282 25.73138 -2.931305 -2.237082 3.353216 2.110124 8.906067 -7.008937 1.787671 22.87969 6.658229 2.855589 -22.6307 9.723208 5.116589 -18.33092 11.15807 85.36698 31.95601 -17.45659 -0 0 15.04459 -9.013862 8.090832 4.797885 6.834103 -19.50541 -1.164238 -92.54772 24.87562 18.68787 0 0 -13.42539 11.99372 18.22793 -0.5597543
0.4395848 101.8812 4.553745 -0.09358069 -0.2930458 0.3504654 4.924561 -23.24591 7.432305 -0 32.07893 -0 -5.388329 -13.70463 -2.907194 -6.420666 11.28618 -20.61394 -0 5.597745 -0 8.115905 -18.56735 25.2965 -2.940019 -2.16632 3.763048 2.542717 8.967874 -7.332512 1.752847 22.02427 6.869514 3.017972 -23.99986 9.995282 5.160717 -18.58064 11.185 85.6963 32.91681 -18.4329 -0 0 14.90511 -8.26112 8.293304 4.573701 7.288711 -20.03396 -0.9186622 -92.12813 23.9931 18.48651 0 0 -15.70193 12.93728 16.80051 -1.378514
0.7155802 100.8049 7.240629 -0.2954855 0.8956964 0.5450474 5.480262 -26.25191 7.121947 -0 27.65667 -0 -5.323657 -12.46744 -2.39922 -6.389482 12.00442 -20.05773 -0 5.546612 -0 7.988712 -19.75743 24.46255 -2.896964 -2.040821 3.915905 2.875382 8.906233 -7.572958 1.714359 21.43299 7.038723 3.150332 -24.92844 10.15019 5.076016 -18.53736 11.14917 86.01624 33.3137 -19.20452 -0 0 14.49827 -7.993614 8.460645 4.52023 7.682368 -20.48875 -0.7091835 -91.69355 23.30365 18.03445 0 0 -17.37768 13.46467 15.82258 -1.929065
0.9969938 99.58754 10.32705 -0.5864243 1.912138 0.8248024 6.024408 -28.94633 6.525119 -0 23.46229 -0 -5.462808 -10.74705 -1.949049 -6.237259 12.77646 -19.1546 -0 6.182613 -0 7.166046 -20.89202 23.13452 -2.747662 -1.873957 3.866184 3.172017 8.768289 -7.79873 1.657725 20.95998 7.201192 3.278219 -25.64938 10.22341 4.879589 -18.26713 11.07491 86.3954 33.31875 -19.94867 -0 0 13.81598 -8.059714 8.639649 4.581816 8.056323 -20.95293 -0.5178472 -91.22556 22.65632 17.38056 0 0 -18.7622 13.76531 15.08329 -2.368508
1.265443 98.28928 13.87018 -0.9598689 2.681946 1.192895 6.565729 -31.01799 5.827122 -0 20.01864 -0 -5.825938 -8.777975 -1.593453 -5.971371 13.4887 -18.03998 -0 7.669436 -0 5.829354 -21.65234 21.47029 -2.472754 -1.715789 3.653861 3.407045 8.627689 -8.01255 1.575932 20.61296 7.34665 3.395454 -26.15488 10.20436 4.626796 -17.85829 11.00294 86.82681 33.06066 -20.63888 -0 0 12.94991 -8.382379 8.836365 4.732627 8.325438 -21.38918 -0.3953299 -90.79082 22.09164 16.69828 0 0 -19.78003 13.85478 14.5828 -2.647834
1.507397 96.98991 17.91061 -1.40885 3.165056 1.633192 7.11644 -32.32047 5.111616 -0 17.45232 -0 -6.421448 -6.75158 -1.334061 -5.594219 14.05413 -16.77538 -0 10.19371 -0 4.110681 -21.8338 19.56011 -2.056093 -1.580765 3.319253 3.570609 8.52266 -8.211222 1.47072 20.39651 7.462136 3.489925 -26.45045 10.0925 4.327892 -17.36131 10.95123 87.32454 32.59707 -21.26662 -0 0 11.93783 -8.906861 9.048503 4.950404 8.444497 -21.78201 -0.3741711 -90.39672 21.60947 16.04738 0 0 -20.427 13.78131 14.27989 -2.776784
1.716691 95.7839 22.46116 -1.900546 3.333607 2.108077 7.668549 -32.71574 4.457764 -0 15.81213 -0 -7.222722 -4.904301 -1.168252 -5.126809 14.3543 -15.44679 -0 13.87799 -0 2.205984 -21.28469 17.56019 -1.510122 -1.479358 2.926981 3.656842 8.485058 -8.384718 1.349367 20.31313 7.532182 3.549864 -26.54762 9.894143 4.000069 -16.83687 10.93352 87.88546 32.00939 -21.81429 -0 0 10.84418 -9.560268 9.269003 5.20851 8.374557 -22.10866 -0.4780966 -90.05353 21.22748 15.49765 0 0 -20.71993 13.57082 14.12134 -2.7366
1.893707 94.77253 27.5047 -2.383506 3.163144 2.560884 8.18673 -32.08173 3.901347 -0 15.03272 -0 -8.184313 -3.458666 -1.094726 -4.598925 14.24666 -14.12576 -0 18.80536 -0 0.3155485 -19.93051 15.64435 -0.8676146 -1.410344 2.550978 3.661338 8.536617 -8.513849 1.225256 20.36999 7.538343 3.563012 -26.4507 9.61926 3.649091 -16.33973 10.95504 88.49799 31.3563 -22.25419 -0 0 9.735003 -10.28452 9.486995 5.485317 8.094445 -22.34887 -0.7195215 -89.76519 20.95969 15.09724 0 0 -20.68568 13.24159 14.05462 -2.511567
2.043421 94.05443 32.98702 -2.789231 2.643572 2.922368 8.611969 -30.32241 3.453127 -0 14.95387 -0 -9.238014 -2.607614 -1.115669 -4.051906 13.55713 -12.87817 -0 24.97027 -0 -1.362626 -17.79009 13.9956 -0.1861071 -1.362622 2.277809 3.58155 8.694631 -8.571887 1.117108 20.57046 7.461466 3.519935 -26.1661 9.282881 3.278017 -15.92931 11.01627 89.1349 30.69263 -22.54684 -0 0 8.695399 -11.02959 9.691802 5.764564 7.602798 -22.48443 -1.096487 -89.54113 20.81581 14.89651 0 0 -20.36301 12.80197 14.02505 -2.082966
2.171871 93.70991 38.80956 -3.039532 1.785676 3.122759 8.869615 -27.3893 3.106388 -0 15.3226 -0 -10.29486 -2.484709 -1.23287 -3.535702 12.08125 -11.75816 -0 32.21388 -0 -2.659446 -14.99438 12.77885 0.4517058 -1.31303 2.200761 3.416738 8.972314 -8.525446 1.0477 20.90912 7.283514 3.415474 -25.7061 8.904703 2.888774 -15.67193 11.11451 89.74754 30.07011 -22.63548 -0 0 7.836258 -11.75885 9.876215 6.040375 6.924126 -22.50188 -1.589291 -89.40034 20.79374 14.95302 0 0 -19.79988 12.2554 13.97791 -1.437411
2.282278 93.77716 44.82642 -3.059872 0.6342352 3.110327 8.886377 -23.32822 2.846341 -0 15.79313 -0 -11.24892 -3.12358 -1.435361 -3.10022 9.604593 -10.79846 -0 40.11114 -0 -3.453866 -11.80716 12.11607 0.9406604 -1.226443 2.405889 3.170041 9.375666 -8.33923 1.039414 21.36337 6.992103 3.250918 -25.09632 8.507386 2.486483 -15.64007 11.2461 90.25745 29.54207 -22.44114 -0 0 7.297191 -12.45604 10.04183 6.325369 6.116851 -22.3981 -2.156274 -89.37118 20.86783 15.32982 0 0 -19.05436 11.61084 13.86216 -0.5835523
2.372758 94.22126 50.85449 -2.801796 -0.7194815 2.872861 8.616699 -18.3359 2.651524 -0 15.94704 -0 -11.98947 -4.413707 -1.683882 -2.772697 5.96008 -9.991454 -0 47.83861 -0 -3.685969 -8.626533 12.06599 1.168773 -1.062642 2.942584 2.851741 9.895521 -7.986869 1.104999 21.8865 6.587567 3.035504 -24.37968 8.111066 2.082477 -15.90268 11.40854 90.55156 29.15906 -21.8608 -0 0 7.233285 -13.13926 10.2054 6.661622 5.279369 -22.18882 -2.732579 -89.48304 20.97243 16.07638 0 0 -18.19042 10.90201 13.64463 0.4163799
2.438236 94.90627 56.70611 -2.274292 -2.133681 2.450904 8.078477 -12.78856 2.485662 -0 15.3685 -0 -12.4236 -6.088566 -1.905408 -2.517726 1.131506 -9.266067 -0 54.10745 -0 -3.365258 -5.929435 12.61176 1.05613 -0.7954011 3.781042 2.482617 10.49654 -7.46909 1.234227 22.40746 6.091011 2.785798 -23.61148 7.724329 1.693709 -16.50595 11.60172 90.49103 28.94799 -20.77658 -0 0 7.780074 -13.87614 10.40257 7.12776 4.544089 -21.9143 -3.237625 -89.75001 20.99125 17.19402 0 0 -17.26013 10.20758 13.33757 1.412729
2.478067 95.59356 62.24427 -1.574051 -3.433787 1.926354 7.385081 -7.177617 2.288917 -0 13.79767 -0 -12.50575 -7.804783 -2.014532 -2.196307 -4.626827 -8.47826 -0 57.32959 -0 -2.579866 -4.121917 13.65864 0.6160441 -0.441557 4.779931 2.094337 11.11071 -6.832866 1.383998 22.84283 5.547795 2.520942 -22.84367 7.337283 1.335938 -17.45292 11.82562 89.94744 28.87236 -19.08821 -0 0 9.006097 -14.78286 10.68083 7.82919 4.04615 -21.63027 -3.59613 -90.15717 20.7753 18.61022 0 0 -16.26902 9.647316 13.02617 2.173909
